HIERARCHY
ROOT Hips
{
	OFFSET 0.000000 0.000000 0.000000 
	CHANNELS 6 Xposition Yposition Zposition Yrotation Zrotation Xrotation 
	JOINT Lumbar
	{
		OFFSET 0.000000 0.000000 0.000000 
		CHANNELS 3 Zrotation Xrotation Yrotation
		JOINT Neck
		{
			OFFSET 0.000000 0.445665 0.000000 
			CHANNELS 3 Zrotation Xrotation Yrotation
			End Site
			{
				OFFSET 0.000000 0.227535 0.000000 
			}
		}
		JOINT RightShoulder
		{
			OFFSET 0.019635 0.377685 0.194865 
			CHANNELS 3 Zrotation Xrotation Yrotation
			JOINT RightElbow
			{
				OFFSET 0.000000 -0.243375 0.000000 
				CHANNELS 2 Zrotation Yrotation
				JOINT RightWrist
				{
					OFFSET 0.000000 -0.264825 0.000000 
					CHANNELS 2 Zrotation Xrotation
					End Site
					{
						OFFSET 0.006600 -0.176220 0.000990 
					}
				}
			}
		}
		JOINT LeftShoulder
		{
			OFFSET 0.019635 0.377685 -0.194865 
			CHANNELS 3 Zrotation Xrotation Yrotation
			JOINT LeftElbow
			{
				OFFSET 0.000000 -0.243375 0.000000 
				CHANNELS 2 Zrotation Yrotation
				JOINT LeftWrist
				{
					OFFSET 0.000000 -0.264825 0.000000 
					CHANNELS 2 Zrotation Xrotation
					End Site
					{
						OFFSET 0.006600 -0.176220 -0.000990 
					}
				}
			}
		}
	}
	JOINT RightHip
	{
		OFFSET 0.052140 -0.069960 0.075570 
		CHANNELS 3 Zrotation Xrotation Yrotation
		JOINT RightKnee
		{
			OFFSET 0.000000 -0.402270 0.000000 
			CHANNELS 1 Zrotation
			JOINT RightAnkle
			{
				OFFSET 0.000000 -0.404085 0.000000 
				CHANNELS 3 Zrotation Xrotation Yrotation
				End Site
				{
					OFFSET 0.204105 -0.089430 0.008415 
				}
			}
		}
	}
	JOINT LeftHip
	{
		OFFSET 0.052140 -0.069960 -0.075570 
		CHANNELS 3 Zrotation Xrotation Yrotation
		JOINT LeftKnee
		{
			OFFSET 0.000000 -0.402270 0.000000 
			CHANNELS 1 Zrotation
			JOINT LeftAnkle
			{
				OFFSET 0.000000 -0.404085 0.000000 
				CHANNELS 3 Zrotation Xrotation Yrotation
				End Site
				{
					OFFSET 0.204105 -0.089430 -0.008415 
				}
			}
		}
	}
}
MOTION
Frames: 22
Frame Time: 0.02
-3.06218 0.02813 1.02076 517.73975 -31.85298 -4.20152 41.17717 -1.61134 -5.44665 -11.4809 14.10527 -2.11994 -10.97321 -41.48339 -9.33876 49.75004 82.34547 1.43457 -1.71309 -32.23963 15.16515 1.59353 36.57196 -87.76987 5.51155 0.04161 10.22942 -18.58836 23.74632 0.38058 -50.00963 -24.34252 -19.55176 7.59798 -9.13058 26.64487 0.47576 -4.35803 -5.44272 -0.38424
-3.05807 0.02829 1.02379 517.30083 -31.73162 -4.28939 40.57974 -1.50776 -5.3413 -11.59849 14.31624 -2.11994 -13.69151 -37.65805 -7.25711 48.29417 83.76688 2.13809 -1.18252 -32.54803 15.24685 1.45561 36.97965 -88.17799 5.60943 -0.08274 10.61877 -18.75455 24.29231 0.37822 -50.01248 -24.12331 -19.55315 7.77414 -9.30624 26.94469 0.47724 -4.28088 -5.40479 -0.34565
-3.05353 0.02851 1.02689 516.82952 -31.62908 -4.4188 39.94519 -1.39259 -5.22937 -11.68389 14.58208 -2.11994 -15.56511 -33.82068 -4.18779 45.65943 85.63979 2.89553 -0.51225 -32.75509 15.41216 1.26749 37.55669 -88.61198 5.65117 -0.23312 11.07881 -18.88331 24.89549 0.37588 -50.0136 -23.88459 -19.55374 8.00022 -9.44411 27.23441 0.4791 -4.18994 -5.29679 -0.29079
-3.04918 0.02872 1.02998 516.36226 -31.53566 -4.5366 39.33695 -1.28164 -5.13371 -11.78644 14.82112 -2.11994 -17.83959 -29.99925 -1.62406 43.61097 87.38967 3.6536 0.09803 -33.0112 15.54384 1.10993 38.0746 -89.05696 5.74319 -0.3705 11.52972 -19.02817 25.50542 0.37386 -50.016 -23.65389 -19.55492 8.22694 -9.5945 27.53467 0.4808 -4.09807 -5.21738 -0.24316
-3.04485 0.02887 1.03301 515.94004 -31.36736 -4.62336 38.68689 -1.17416 -4.97646 -11.87643 15.07121 -2.11994 -20.00346 -26.10493 1.24835 41.32675 88.82551 4.32262 0.70378 -33.2497 15.65955 0.91572 38.52344 -89.42177 5.74174 -0.51473 11.88488 -19.17957 25.98731 0.37044 -50.0214 -23.42333 -19.55754 8.3556 -9.76655 27.81176 0.48243 -4.03894 -5.15497 -0.19654
-3.04037 0.02915 1.03616 515.41298 -31.35902 -4.78482 38.11564 -1.05745 -4.9488 -11.9869 15.30788 -2.11994 -22.20667 -22.37707 3.68394 39.26056 90.98855 5.17587 1.34594 -33.50227 15.8274 0.78749 39.15055 -89.94662 5.91267 -0.64943 12.45647 -19.30748 26.7404 0.36992 -50.01378 -23.1889 -19.554 8.70046 -9.88446 28.13729 0.4843 -3.90725 -5.03944 -0.14362
-3.03555 0.02981 1.03957 514.64506 -31.79456 -5.14162 37.77456 -0.91358 -5.27114 -12.14625 15.52106 -2.11994 -24.78973 -19.03454 4.6942 38.10696 95.32098 6.61958 2.08272 -33.8221 16.11929 0.85287 40.26797 -90.99522 6.63279 -0.76033 13.59825 -19.37894 28.29084 0.3776 -50.02751 -22.95222 -19.5598 9.62653 -9.85333 28.55839 0.48675 -3.58126 -4.79184 -0.07983
-3.0306 0.03059 1.04309 513.76552 -32.38897 -5.57215 37.51402 -0.76181 -5.72634 -12.3299 15.71345 -2.11994 -27.43494 -15.87914 5.21689 37.21397 100.32164 8.22947 2.84505 -34.15846 16.46039 0.98688 41.54921 -92.18769 7.51724 -0.85907 14.95582 -19.42774 30.09895 0.38814 -50.01936 -22.71241 -19.55515 10.76863 -9.77034 29.0355 0.48941 -3.18222 -4.49308 -0.00981
-3.0257 0.0313 1.04656 512.91114 -32.90672 -5.96977 37.21431 -0.6166 -6.12786 -12.51326 15.89791 -2.11994 -30.01702 -12.6895 5.9386 36.18914 104.83201 9.69785 3.57594 -34.48718 16.77817 1.09089 42.73182 -93.25372 8.28562 -0.9572 16.22245 -19.48711 31.74881 0.39725 -49.98168 -22.47189 -19.5374 11.81458 -9.71631 29.51264 0.49196 -2.81414 -4.21903 0.0591
-3.0208 0.03207 1.05004 512.16418 -33.44523 -6.3672 36.92298 -0.45817 -6.50166 -12.65182 16.15878 -2.11994 -32.72001 -9.27732 6.79174 35.17446 110.13011 11.44046 4.39517 -34.81781 17.10265 1.18901 44.03082 -94.57326 9.22354 -1.08155 17.4663 -19.54434 33.57862 0.40698 -50.1033 -22.23867 -19.59256 12.85536 -9.63785 29.88139 0.49459 -2.45377 -3.93686 0.12149
-3.0159 0.03274 1.05351 511.16652 -33.97634 -6.78085 36.63524 -0.32591 -6.96376 -12.88771 16.25346 -2.11994 -35.19217 -6.38245 7.24158 34.22208 113.9603 12.65865 5.03512 -35.14346 17.42417 1.31517 45.11358 -95.40525 9.85226 -1.14884 18.80186 -19.60079 35.08887 0.416 -49.89711 -21.99098 -19.49639 13.95549 -9.59895 30.49003 0.49709 -2.06179 -3.65983 0.19849
-3.01098 0.03312 1.05701 509.51214 -34.46218 -7.23041 36.32622 -0.26474 -7.64635 -13.40495 15.9061 -2.11994 -37.05691 -4.79422 6.69369 33.33183 113.39482 12.31654 5.1683 -35.50477 17.72098 1.51459 45.64855 -94.79629 9.54904 -1.05465 20.3883 -19.66385 35.67511 0.42317 -48.70947 -21.68241 -18.95214 15.18379 -9.6779 31.73913 0.49921 -1.58688 -3.41194 0.31754
-3.0061 0.0334 1.06047 507.60829 -34.93224 -7.69153 36.02078 -0.2308 -8.41131 -14.01574 15.39011 -2.11994 -38.68145 -3.73466 5.75169 32.50943 111.3577 11.45281 5.12047 -35.85058 18.01324 1.73906 45.94302 -93.70161 8.93517 -0.90468 22.049 -19.72676 35.91133 0.42929 -47.20601 -21.35565 -18.25731 16.46062 -9.79947 33.22774 0.50116 -1.08561 -3.16944 0.45124
-3.00124 0.03373 1.0639 505.81297 -35.40043 -8.14153 35.72093 -0.18649 -9.13289 -14.57207 14.94286 -2.11994 -40.39287 -2.48287 4.98773 31.69284 110.11225 10.87597 5.15836 -36.1695 18.31048 1.94241 46.28769 -92.86946 8.4901 -0.78454 23.64324 -19.78743 36.31275 0.43552 -45.90315 -21.06156 -17.65892 17.70414 -9.90431 34.61413 0.5032 -0.60486 -2.92508 0.575
-2.99619 0.03407 1.06757 504.03273 -35.91296 -8.62016 35.39175 -0.13348 -9.8852 -15.18081 14.52668 -2.11994 -42.20693 -1.03412 4.21395 30.73181 108.38133 10.09937 5.18264 -36.63399 18.59843 2.18394 46.88635 -91.8702 7.9388 -0.64476 25.38643 -19.85587 36.7598 0.44383 -44.36651 -20.6967 -16.9614 19.00397 -9.99588 35.98093 0.50533 -0.08404 -2.68234 0.70943
-2.99156 0.03435 1.07071 502.1651 -36.32654 -9.03934 35.12552 -0.10508 -10.59009 -15.70087 14.00794 -2.11994 -43.74074 -0.11961 3.37074 30.08204 107.29119 9.6068 5.19195 -36.78914 18.90247 2.35763 46.89841 -91.09643 7.52695 -0.53317 26.83012 -19.90984 36.94698 0.44695 -43.23211 -20.43434 -16.41032 20.19365 -10.12624 37.43661 0.50709 0.3568 -2.43073 0.82931
-2.98797 0.03446 1.0725 500.10229 -36.47637 -9.30442 35.01468 -0.13874 -11.15291 -15.96526 13.23109 -2.11994 -44.63405 -0.54303 2.45552 30.29908 108.42483 10.07525 5.20231 -36.11366 19.26537 2.27908 45.33704 -91.10899 7.62621 -0.50963 27.46224 -19.91175 37.19646 0.44119 -43.37372 -20.82272 -16.51866 21.0797 -10.3506 39.14832 0.50838 0.58565 -2.21762 0.86869
-2.98482 0.03449 1.07375 497.96363 -36.52535 -9.50634 34.9701 -0.19609 -11.66223 -16.13478 12.36032 -2.11994 -45.2392 -1.48617 1.48298 30.82277 110.22899 10.83654 5.20331 -35.12416 19.6423 2.14076 43.19774 -91.35596 7.86653 -0.51688 27.78328 -19.90155 37.08362 0.42939 -43.91631 -21.2579 -16.74526 21.84993 -10.6131 40.92819 0.50884 0.72994 -1.98384 0.89971
-2.98152 0.03456 1.0752 495.86985 -36.61596 -9.72847 34.90608 -0.24222 -12.19019 -16.33972 11.54275 -2.11994 -45.92751 -2.19588 0.52257 31.18742 111.66613 11.43202 5.21066 -34.26471 20.00331 2.06961 41.32705 -91.46574 8.00841 -0.51257 28.22329 -19.90489 36.65711 0.41675 -44.2157 -21.41971 -16.76659 22.66379 -10.86039 42.63095 0.50982 0.90245 -1.71732 0.95869
-2.97801 0.03464 1.07683 493.72277 -36.72367 -9.98741 34.79652 -0.29143 -12.74744 -16.58054 10.67332 -2.11994 -46.81039 -2.91339 -0.39705 31.63194 113.33227 12.15169 5.20598 -33.45598 20.40282 1.83568 39.41212 -91.6889 8.2838 -0.49682 28.75956 -19.874 38.16374 0.41863 -44.75496 -22.60078 -17.3962 23.51701 -11.10094 44.53612 0.51171 1.11877 -1.628 0.91636
-2.97505 0.03467 1.07795 491.67266 -36.77221 -10.15388 34.79831 -0.33922 -13.2269 -16.72275 9.89376 -2.11994 -47.22125 -3.73006 -1.40514 31.98923 114.67857 12.68383 5.22258 -32.46998 20.72762 1.91977 37.46873 -91.73691 8.31953 -0.51198 29.02177 -19.91187 35.65553 0.38956 -44.9021 -21.72595 -16.82173 24.2607 -11.36306 46.03371 0.50962 1.22374 -1.16568 1.08265
-2.97351 0.03455 1.07784 489.90491 -36.68011 -10.08554 35.08426 -0.37973 -13.52952 -16.61605 9.37002 -2.11994 -46.4119 -4.70051 -2.68024 31.96925 115.16894 12.67405 5.33451 -31.04773 20.82536 2.95065 35.47418 -91.2555 7.65327 -0.61346 28.59182 -20.13962 21.34449 0.27031 -43.80001 -14.67958 -12.60967 24.72415 -11.68359 46.37911 0.51306 1.03848 0.33068 1.82897
